<?xml version="1.0" encoding="UTF-8"?>
<svg version="1.1" xmlns="http://www.w3.org/2000/svg" width="100" height="100">
<path d="M0 0 C1.134375 0.020625 2.26875 0.04125 3.4375 0.0625 C5.89516418 7.50322345 5.57645365 14.21161862 5.4375 22.0625 C12.3675 22.0625 19.2975 22.0625 26.4375 22.0625 C26.7675 20.7425 27.0975 19.4225 27.4375 18.0625 C29.0875 18.0625 30.7375 18.0625 32.4375 18.0625 C32.4375 13.4425 32.4375 8.8225 32.4375 4.0625 C38.26924402 1.14662799 47.1945347 3.25695609 53.4375 4.0625 C56.17975803 9.71840719 55.89530584 15.04905091 54.4375 21.0625 C55.4275 21.0625 56.4175 21.0625 57.4375 21.0625 C57.4375 14.1325 57.4375 7.2025 57.4375 0.0625 C60.4075 0.0625 63.3775 0.0625 66.4375 0.0625 C67.90354184 2.99458369 67.576287 5.94503038 67.56689453 9.15844727 C67.56952301 10.25375259 67.56952301 10.25375259 67.57220459 11.3711853 C67.57661436 13.79044962 67.57368849 16.20964115 67.5703125 18.62890625 C67.57098572 20.30517084 67.57195589 21.98143533 67.57321167 23.65769958 C67.5746874 27.17244394 67.57253782 30.68716289 67.56787109 34.2019043 C67.56216949 38.71716866 67.56545633 43.23237365 67.57144356 47.74763584 C67.5750488 51.20904492 67.57391083 54.6704398 67.57131577 58.13184929 C67.57064662 59.79730168 67.57147448 61.46275534 67.57379532 63.12820625 C67.57632172 65.45082157 67.57248166 67.77333926 67.56689453 70.09594727 C67.56891876 70.79051529 67.57094299 71.48508331 67.57302856 72.20069885 C67.55176368 76.94823632 67.55176368 76.94823632 66.4375 78.0625 C63.5625 78.4375 63.5625 78.4375 60.4375 78.0625 C59.98352341 77.24147293 59.52954681 76.42044586 59.06181335 75.57453918 C57.70212615 72.84939018 57.70212615 72.84939018 55.10261536 72.46122742 C54.18550278 72.47233047 53.2683902 72.48343353 52.32348633 72.49487305 C51.28263382 72.4952507 50.24178131 72.49562836 49.16938782 72.49601746 C48.04743515 72.52182388 46.92548248 72.54763031 45.76953125 72.57421875 C44.61958176 72.58129349 43.46963226 72.58836823 42.28483582 72.59565735 C38.6059001 72.62368338 34.928477 72.68644152 31.25 72.75 C28.75848549 72.77507205 26.26694717 72.79788711 23.77539062 72.81835938 C17.66224286 72.87353711 11.54997947 72.95724657 5.4375 73.0625 C5.4375 74.3825 5.4375 75.7025 5.4375 77.0625 C2.69844655 78.43202673 0.46662668 78.18871361 -2.5625 78.0625 C-3.2225 77.7325 -3.8825 77.4025 -4.5625 77.0625 C-4.58562428 67.17060624 -4.60341552 57.27871886 -4.61431217 47.38680363 C-4.61954082 42.7940736 -4.62663812 38.201362 -4.63793945 33.60864258 C-4.648769 29.18016312 -4.65477698 24.75170144 -4.65737724 20.32320976 C-4.65923137 18.62984372 -4.66285175 16.93647871 -4.66823006 15.24312019 C-4.6754414 12.87958768 -4.6764909 10.51612955 -4.67602539 8.15258789 C-4.67962067 7.44552704 -4.68321594 6.73846619 -4.68692017 6.00997925 C-4.67420429 0.08200358 -4.67420429 0.08200358 0 0 Z M14.4375 29.0625 C12.79278282 29.25955078 11.14687592 29.44688959 9.5 29.625 C8.72785156 29.70878906 7.95570312 29.79257812 7.16015625 29.87890625 C6.59167969 29.93949219 6.02320313 30.00007813 5.4375 30.0625 C4.66136191 37.78230206 4.33023701 45.4327305 4.3125 53.1875 C4.30798828 54.01677002 4.30347656 54.84604004 4.29882812 55.70043945 C4.30715434 59.06804768 4.36543259 61.84629777 5.4375 65.0625 C8.7375 65.3925 12.0375 65.7225 15.4375 66.0625 C14.7775 65.7325 14.1175 65.4025 13.4375 65.0625 C13.7675 59.4525 14.0975 53.8425 14.4375 48.0625 C18.79170857 48.03545523 23.145748 48.01563867 27.5 48 C28.72912109 47.99162109 29.95824219 47.98324219 31.22460938 47.97460938 C37.06536137 47.95886611 42.68947017 47.97780492 48.4375 49.0625 C48.46441685 51.52090605 48.48429802 53.97901882 48.5 56.4375 C48.50837891 57.13617188 48.51675781 57.83484375 48.52539062 58.5546875 C48.55078125 63.8359375 48.55078125 63.8359375 47.4375 66.0625 C50.7375 66.0625 54.0375 66.0625 57.4375 66.0625 C58.97687439 62.98375123 58.44046786 59.79513303 58.31640625 56.4296875 C58.29279526 55.67785187 58.26918427 54.92601624 58.24485779 54.15139771 C58.1681938 51.74657434 58.08418156 49.34207082 58 46.9375 C57.94678203 45.30860948 57.89404161 43.67970328 57.84179688 42.05078125 C57.71257502 38.0544844 57.57676173 34.05845908 57.4375 30.0625 C54.66026075 29.27561555 52.21139923 28.94300076 49.328125 28.96484375 C48.19697266 28.96967773 48.19697266 28.96967773 47.04296875 28.97460938 C46.26566406 28.98298828 45.48835938 28.99136719 44.6875 29 C43.89472656 29.00451172 43.10195313 29.00902344 42.28515625 29.01367188 C40.33590492 29.02541435 38.38669262 29.04334854 36.4375 29.0625 C36.4375 30.3825 36.4375 31.7025 36.4375 33.0625 C38.4175 33.3925 40.3975 33.7225 42.4375 34.0625 C40.02921894 38.73739853 36.6631786 42.90914414 32.4375 46.0625 C31.1175 46.0625 29.7975 46.0625 28.4375 46.0625 C28.210625 45.52625 27.98375 44.99 27.75 44.4375 C26.58899389 42.33663181 25.41671002 40.7554702 23.875 38.9375 C21.4375 36.0625 21.4375 36.0625 20.4375 34.0625 C22.4175 33.7325 24.3975 33.4025 26.4375 33.0625 C26.7675 31.7425 27.0975 30.4225 27.4375 29.0625 C22.7580344 28.03530023 19.14224244 28.26508603 14.4375 29.0625 Z " fill="#09AAA9" transform="translate(18.5625,10.9375)"/>
<path d="M0 0 C6.69983804 -0.09571197 13.36845605 -0.08516174 20 1 C21 2 21 2 21.09765625 5.59765625 C21.09191272 7.08597255 21.07889891 8.57426296 21.0625 10.0625 C21.041875 12.681875 21.02125 15.30125 21 18 C15.72 18 10.44 18 5 18 C5 20.31 5 22.62 5 25 C4.5 27.4375 4.5 27.4375 4 29 C5.98 29.33 7.96 29.66 10 30 C9.45575015 34.01268958 7.47927799 35.98416846 4.6875 38.8125 C3.51767578 40.02873047 3.51767578 40.02873047 2.32421875 41.26953125 C0 43 0 43 -2.02734375 43.0703125 C-4.81773977 41.55631545 -6.31237702 39.56346892 -8.25 37.0625 C-9.30960938 35.71865234 -9.30960938 35.71865234 -10.390625 34.34765625 C-12 32 -12 32 -12 30 C-10.02 29.67 -8.04 29.34 -6 29 C-6.09539063 28.33613281 -6.19078125 27.67226563 -6.2890625 26.98828125 C-7.39015817 18.21792619 -7.39015817 18.21792619 -5 14 C-3.35 14 -1.7 14 0 14 C0 9.38 0 4.76 0 0 Z " fill="#F86B7E" transform="translate(51,15)"/>
<path d="M0 0 C0.99322266 -0.00128906 1.98644531 -0.00257812 3.00976562 -0.00390625 C4.55760742 0.00189453 4.55760742 0.00189453 6.13671875 0.0078125 C7.6671582 0.00201172 7.6671582 0.00201172 9.22851562 -0.00390625 C23.70621713 0.01481088 23.70621713 0.01481088 25.82421875 2.1328125 C25.95075073 4.62519819 26.009417 7.07751691 26.01171875 9.5703125 C26.02396484 10.26447266 26.03621094 10.95863281 26.04882812 11.67382812 C26.05411717 13.49502151 25.94591082 15.3156817 25.82421875 17.1328125 C23.82421875 19.1328125 23.82421875 19.1328125 20.69140625 19.37573242 C19.37398437 19.37162354 18.0565625 19.36751465 16.69921875 19.36328125 C15.99651855 19.36282303 15.29381836 19.36236481 14.56982422 19.3618927 C13.08364169 19.35887075 11.59746231 19.35098609 10.11132812 19.33862305 C7.8332195 19.32038456 5.55551771 19.31811325 3.27734375 19.31835938 C-7.88072866 19.28033879 -7.88072866 19.28033879 -10.17578125 18.1328125 C-10.2027785 15.86204408 -10.22217578 13.59118429 -10.23828125 11.3203125 C-10.25568359 9.42345703 -10.25568359 9.42345703 -10.2734375 7.48828125 C-10.17578125 4.1328125 -10.17578125 4.1328125 -9.17578125 1.1328125 C-6.17410072 -0.03954118 -3.19292427 0.00401013 0 0 Z " fill="#FDB83C" transform="translate(42.17578125,57.8671875)"/>
<path d="M0 0 C1.65 0 3.3 0 5 0 C5.02505615 0.62044189 5.0501123 1.24088379 5.07592773 1.88012695 C5.19196721 4.69112397 5.31465759 7.50179241 5.4375 10.3125 C5.47681641 11.28896484 5.51613281 12.26542969 5.55664062 13.27148438 C5.59853516 14.20927734 5.64042969 15.14707031 5.68359375 16.11328125 C5.72025146 16.97735596 5.75690918 17.84143066 5.79467773 18.73168945 C5.92747354 21.1647826 5.92747354 21.1647826 7 24 C6.01 23.67 5.02 23.34 4 23 C4 22.34 4 21.68 4 21 C3.34 21 2.68 21 2 21 C2 22.98 2 24.96 2 27 C2.99 26.67 3.98 26.34 5 26 C5.33 39.2 5.66 52.4 6 66 C23.49 66 40.98 66 59 66 C59.33 66.66 59.66 67.32 60 68 C32.775 68.495 32.775 68.495 5 69 C5 70.65 5 72.3 5 74 C3.02 74 1.04 74 -1 74 C-1.02313952 64.64691135 -1.04092333 55.29383251 -1.05181217 45.94072151 C-1.05703746 41.5980033 -1.06412873 37.25530462 -1.07543945 32.91259766 C-1.08628085 28.72401613 -1.09227951 24.53545344 -1.09487724 20.34685898 C-1.09672922 18.74642515 -1.10034552 17.1459924 -1.10573006 15.54556656 C-1.1129571 13.30916339 -1.11399023 11.07283869 -1.11352539 8.83642578 C-1.115746 7.56179474 -1.11796661 6.2871637 -1.12025452 4.97390747 C-1 2 -1 2 0 0 Z " fill="#0EA7A8" transform="translate(16,13)"/>
<path d="M0 0 C1.134375 0.020625 2.26875 0.04125 3.4375 0.0625 C5.89516418 7.50322345 5.57645365 14.21161862 5.4375 22.0625 C12.3675 22.0625 19.2975 22.0625 26.4375 22.0625 C26.1075 24.0425 25.7775 26.0225 25.4375 28.0625 C18.19551783 30.29080221 13.6143929 30.0625 5.4375 30.0625 C5.4375 41.6125 5.4375 53.1625 5.4375 65.0625 C27.2175 65.5575 27.2175 65.5575 49.4375 66.0625 C49.4375 66.7225 49.4375 67.3825 49.4375 68.0625 C43.20802061 68.23052786 36.97837151 68.39045472 30.74853516 68.54467773 C28.62804423 68.59813685 26.50759969 68.65346917 24.38720703 68.71069336 C21.34417728 68.79249523 18.3010458 68.86761898 15.2578125 68.94140625 C14.30568878 68.96844131 13.35356506 68.99547638 12.37258911 69.02333069 C11.49182709 69.04342697 10.61106506 69.06352325 9.70361328 69.08422852 C8.92639923 69.10421402 8.14918518 69.12419952 7.34841919 69.14479065 C5.4375 69.0625 5.4375 69.0625 3.4375 68.0625 C2.19276468 64.32829403 2.20540215 60.78884762 2.12109375 56.89453125 C2.10031265 56.09971848 2.07953156 55.3049057 2.05812073 54.48600769 C1.99277913 51.94909237 1.93381192 49.41207427 1.875 46.875 C1.83180014 45.15428628 1.78818537 43.43358292 1.74414062 41.71289062 C1.63711352 37.49619887 1.53580276 33.2794038 1.4375 29.0625 C0.7775 29.0625 0.1175 29.0625 -0.5625 29.0625 C-0.5625 27.0825 -0.5625 25.1025 -0.5625 23.0625 C1.4375 23.0625 1.4375 23.0625 3.0625 24.5625 C3.51625 25.0575 3.97 25.5525 4.4375 26.0625 C3.7775 25.0725 3.1175 24.0825 2.4375 23.0625 C2.21044922 20.79418945 2.21044922 20.79418945 2.2421875 18.17578125 C2.25185547 16.7690918 2.25185547 16.7690918 2.26171875 15.33398438 C2.27847656 14.35751953 2.29523437 13.38105469 2.3125 12.375 C2.32152344 11.38693359 2.33054687 10.39886719 2.33984375 9.38085938 C2.3634157 6.94116235 2.39631978 4.50195303 2.4375 2.0625 C0.7875 2.0625 -0.8625 2.0625 -2.5625 2.0625 C-2.8925 6.0225 -3.2225 9.9825 -3.5625 14.0625 C-3.8925 14.0625 -4.2225 14.0625 -4.5625 14.0625 C-4.58935938 11.91673363 -4.60883088 9.77087355 -4.625 7.625 C-4.63660156 6.43003906 -4.64820313 5.23507813 -4.66015625 4.00390625 C-4.51766709 -0.28786723 -4.40551892 0.07728981 0 0 Z " fill="#17A5A0" transform="translate(18.5625,10.9375)"/>
<path d="M0 0 C2.64 0 5.28 0 8 0 C10.80396138 4.94816714 9.77350507 9.61682285 9 15 C11.97 15.495 11.97 15.495 15 16 C14.45575015 20.01268958 12.47927799 21.98416846 9.6875 24.8125 C8.90761719 25.62332031 8.12773438 26.43414062 7.32421875 27.26953125 C5 29 5 29 2.97265625 29.0703125 C0.18226023 27.55631545 -1.31237702 25.56346892 -3.25 23.0625 C-3.95640625 22.16660156 -4.6628125 21.27070312 -5.390625 20.34765625 C-7 18 -7 18 -7 16 C-5.02 15.67 -3.04 15.34 -1 15 C-1.09539063 14.33613281 -1.19078125 13.67226563 -1.2890625 12.98828125 C-2.39015817 4.21792619 -2.39015817 4.21792619 0 0 Z " fill="#F47849" transform="translate(46,29)"/>
<path d="M0 0 C1.32 0 2.64 0 4 0 C4 14.66666667 4 29.33333333 4 44 C-14.15 44 -32.3 44 -51 44 C-51 45.32 -51 46.64 -51 48 C-53.73905345 49.36952673 -55.97087332 49.12621361 -59 49 C-59.66 48.67 -60.32 48.34 -61 48 C-61 45.03 -61 42.06 -61 39 C-60.67 39 -60.34 39 -60 39 C-60 41.64 -60 44.28 -60 47 C-58.02 47 -56.04 47 -54 47 C-54 45.35 -54 43.7 -54 42 C-51.05690137 41.01896712 -49.0503097 40.84778313 -45.9777832 40.79467773 C-44.95695145 40.77473251 -43.93611969 40.75478729 -42.88435364 40.73423767 C-41.23423531 40.70916893 -41.23423531 40.70916893 -39.55078125 40.68359375 C-38.4230278 40.66281265 -37.29527435 40.64203156 -36.13334656 40.62062073 C-32.5264604 40.55517153 -28.91950071 40.49626156 -25.3125 40.4375 C-22.86913298 40.39431039 -20.42577344 40.35069596 -17.98242188 40.30664062 C-11.98835926 40.19949484 -5.99422329 40.09771971 0 40 C-2.31 39.67 -4.62 39.34 -7 39 C-7 38.34 -7 37.68 -7 37 C-4.36 36.67 -1.72 36.34 1 36 C0.67 24.12 0.34 12.24 0 0 Z " fill="#54BDBD" transform="translate(75,40)"/>
<path d="M0 0 C2.97 0 5.94 0 9 0 C10.46604184 2.93208369 10.138787 5.88253038 10.12939453 9.09594727 C10.13114685 9.82615082 10.13289917 10.55635437 10.13470459 11.3086853 C10.13911436 13.72794962 10.13618849 16.14714115 10.1328125 18.56640625 C10.13348572 20.24267084 10.13445589 21.91893533 10.13571167 23.59519958 C10.1371874 27.10994394 10.13503782 30.62466289 10.13037109 34.1394043 C10.12466949 38.65466866 10.12795633 43.16987365 10.13394356 47.68513584 C10.1375488 51.14654492 10.13641083 54.6079398 10.13381577 58.06934929 C10.13314662 59.73480168 10.13397448 61.40025534 10.13629532 63.06570625 C10.13882172 65.38832157 10.13498166 67.71083926 10.12939453 70.03344727 C10.13141876 70.72801529 10.13344299 71.42258331 10.13552856 72.13819885 C10.11426368 76.88573632 10.11426368 76.88573632 9 78 C7.00041636 78.04080783 4.99954746 78.04254356 3 78 C3 77.67 3 77.34 3 77 C4.65 77 6.3 77 8 77 C8 52.25 8 27.5 8 2 C6.02 2 4.04 2 2 2 C2.00785522 2.85549438 2.00785522 2.85549438 2.01586914 3.72827148 C2.03658221 6.29800323 2.0496419 8.86771747 2.0625 11.4375 C2.07087891 12.33533203 2.07925781 13.23316406 2.08789062 14.15820312 C2.09272461 15.43920898 2.09272461 15.43920898 2.09765625 16.74609375 C2.10551147 17.93223267 2.10551147 17.93223267 2.11352539 19.14233398 C2 21 2 21 1 22 C-0.65 22 -2.3 22 -4 22 C-4.33 16.72 -4.66 11.44 -5 6 C-10.94 5.34 -16.88 4.68 -23 4 C-23 3.67 -23 3.34 -23 3 C-16.56744599 2.87913782 -10.38226945 3.17648136 -4 4 C-1.25774197 9.65590719 -1.54219416 14.98655091 -3 21 C-2.01 21 -1.02 21 0 21 C0 14.07 0 7.14 0 0 Z " fill="#80C0C1" transform="translate(76,11)"/>
<path d="M0 0 C0.99322266 -0.00128906 1.98644531 -0.00257812 3.00976562 -0.00390625 C4.55760742 0.00189453 4.55760742 0.00189453 6.13671875 0.0078125 C7.6671582 0.00201172 7.6671582 0.00201172 9.22851562 -0.00390625 C23.70621713 0.01481088 23.70621713 0.01481088 25.82421875 2.1328125 C25.95075073 4.62519819 26.009417 7.07751691 26.01171875 9.5703125 C26.02396484 10.26447266 26.03621094 10.95863281 26.04882812 11.67382812 C26.05411717 13.49502151 25.94591082 15.3156817 25.82421875 17.1328125 C23.82421875 19.1328125 23.82421875 19.1328125 20.69140625 19.37573242 C19.37398437 19.37162354 18.0565625 19.36751465 16.69921875 19.36328125 C15.99651855 19.36282303 15.29381836 19.36236481 14.56982422 19.3618927 C13.08364169 19.35887075 11.59746231 19.35098609 10.11132812 19.33862305 C7.8332195 19.32038456 5.55551771 19.31811325 3.27734375 19.31835938 C-7.88072866 19.28033879 -7.88072866 19.28033879 -10.17578125 18.1328125 C-10.2027785 15.86204408 -10.22217578 13.59118429 -10.23828125 11.3203125 C-10.25568359 9.42345703 -10.25568359 9.42345703 -10.2734375 7.48828125 C-10.17578125 4.1328125 -10.17578125 4.1328125 -9.17578125 1.1328125 C-6.17410072 -0.03954118 -3.19292427 0.00401013 0 0 Z M-8.17578125 2.1328125 C-8.17578125 7.0828125 -8.17578125 12.0328125 -8.17578125 17.1328125 C2.38421875 17.1328125 12.94421875 17.1328125 23.82421875 17.1328125 C23.82421875 12.5128125 23.82421875 7.8928125 23.82421875 3.1328125 C22.71074279 1.79284318 22.71074279 1.79284318 19.86499023 2.01928711 C17.92474976 2.02714233 17.92474976 2.02714233 15.9453125 2.03515625 C15.25865005 2.0365712 14.57198761 2.03798615 13.86451721 2.03944397 C11.66354074 2.04505771 9.46266466 2.05761243 7.26171875 2.0703125 C5.77278792 2.07532574 4.28385551 2.07988895 2.79492188 2.08398438 C-0.8620493 2.09418229 -4.51880242 2.11375471 -8.17578125 2.1328125 Z " fill="#E2CA82" transform="translate(42.17578125,57.8671875)"/>
<path d="M0 0 C1.65 0 3.3 0 5 0 C7.28426194 2.28426194 6.39315612 7.805969 6.5234375 10.8984375 C7.01943595 14.12649299 7.43336492 15.09218034 10 17 C9.030625 17.12375 8.06125 17.2475 7.0625 17.375 C6.051875 17.58125 5.04125 17.7875 4 18 C3.67 18.66 3.34 19.32 3 20 C3.66 20 4.32 20 5 20 C5 21.65 5 23.3 5 25 C3.68 25 2.36 25 1 25 C0.67 23.68 0.34 22.36 0 21 C-1.65 20.67 -3.3 20.34 -5 20 C-5.33 18.68 -5.66 17.36 -6 16 C-4.02 15.67 -2.04 15.34 0 15 C0 10.05 0 5.1 0 0 Z " fill="#FB6024" transform="translate(47,30)"/>
<path d="M0 0 C1.134375 0.020625 2.26875 0.04125 3.4375 0.0625 C5.89516418 7.50322345 5.57645365 14.21161862 5.4375 22.0625 C12.3675 22.0625 19.2975 22.0625 26.4375 22.0625 C26.1075 24.0425 25.7775 26.0225 25.4375 28.0625 C25.1075 26.7425 24.7775 25.4225 24.4375 24.0625 C23.80658447 24.06773682 23.17566895 24.07297363 22.52563477 24.07836914 C19.68376653 24.09907826 16.84191412 24.11214066 14 24.125 C12.51016602 24.13756836 12.51016602 24.13756836 10.99023438 24.15039062 C10.04599609 24.15361328 9.10175781 24.15683594 8.12890625 24.16015625 C6.81708374 24.16801147 6.81708374 24.16801147 5.47875977 24.17602539 C3.4375 24.0625 3.4375 24.0625 2.4375 23.0625 C2.35064397 21.50077255 2.33047781 19.93520656 2.33984375 18.37109375 C2.34306641 17.42685547 2.34628906 16.48261719 2.34960938 15.50976562 C2.35798828 14.51654297 2.36636719 13.52332031 2.375 12.5 C2.37951172 11.50291016 2.38402344 10.50582031 2.38867188 9.47851562 C2.40049993 7.00645151 2.41698151 4.53450482 2.4375 2.0625 C0.7875 2.0625 -0.8625 2.0625 -2.5625 2.0625 C-2.8925 6.0225 -3.2225 9.9825 -3.5625 14.0625 C-3.8925 14.0625 -4.2225 14.0625 -4.5625 14.0625 C-4.58935938 11.91673363 -4.60883088 9.77087355 -4.625 7.625 C-4.63660156 6.43003906 -4.64820313 5.23507813 -4.66015625 4.00390625 C-4.51766709 -0.28786723 -4.40551892 0.07728981 0 0 Z " fill="#45AFAF" transform="translate(18.5625,10.9375)"/>
<path d="M0 0 C1.98 0 3.96 0 6 0 C6 6.27 6 12.54 6 19 C5.67 19 5.34 19 5 19 C5 13.06 5 7.12 5 1 C3.68 1 2.36 1 1 1 C1.00785522 1.90093384 1.00785522 1.90093384 1.01586914 2.82006836 C1.03658014 5.52586838 1.04964125 8.23165177 1.0625 10.9375 C1.07087891 11.88302734 1.07925781 12.82855469 1.08789062 13.80273438 C1.09272461 15.15141602 1.09272461 15.15141602 1.09765625 16.52734375 C1.10551147 17.77632446 1.10551147 17.77632446 1.11352539 19.05053711 C1 21 1 21 0 22 C-1.56172745 22.08685603 -3.12729344 22.10702219 -4.69140625 22.09765625 C-5.63564453 22.09443359 -6.57988281 22.09121094 -7.55273438 22.08789062 C-9.04256836 22.07532227 -9.04256836 22.07532227 -10.5625 22.0625 C-11.55958984 22.05798828 -12.55667969 22.05347656 -13.58398438 22.04882812 C-16.05604849 22.03700007 -18.52799518 22.02051849 -21 22 C-20.67 23.65 -20.34 25.3 -20 27 C-20.66 27 -21.32 27 -22 27 C-22 24.69 -22 22.38 -22 20 C-11.605 19.505 -11.605 19.505 -1 19 C-0.67 12.73 -0.34 6.46 0 0 Z " fill="#37A2A3" transform="translate(78,13)"/>
<path d="M0 0 C1.32 0 2.64 0 4 0 C4.02505615 0.62044189 4.0501123 1.24088379 4.07592773 1.88012695 C4.19196721 4.69112397 4.31465759 7.50179241 4.4375 10.3125 C4.47681641 11.28896484 4.51613281 12.26542969 4.55664062 13.27148438 C4.59853516 14.20927734 4.64042969 15.14707031 4.68359375 16.11328125 C4.72025146 16.97735596 4.75690918 17.84143066 4.79467773 18.73168945 C4.92747354 21.1647826 4.92747354 21.1647826 6 24 C5.01 23.67 4.02 23.34 3 23 C3 22.34 3 21.68 3 21 C2.34 21 1.68 21 1 21 C0.67 22.32 0.34 23.64 0 25 C0 16.75 0 8.5 0 0 Z " fill="#05ABAD" transform="translate(17,13)"/>
<path d="M0 0 C4.95 0 9.9 0 15 0 C11 2 11 2 2 2 C2 13.55 2 25.1 2 37 C5.3 37.33 8.6 37.66 12 38 C12 38.33 12 38.66 12 39 C8.37 39 4.74 39 1 39 C-0.25282725 35.24151826 -0.12381835 31.74509081 -0.09765625 27.83203125 C-0.0962413 27.03721848 -0.09482635 26.2424057 -0.09336853 25.42350769 C-0.08777378 22.88646675 -0.07522228 20.34951425 -0.0625 17.8125 C-0.05748432 16.09179815 -0.05292153 14.37109492 -0.04882812 12.65039062 C-0.03780607 8.4335597 -0.02054506 4.21679484 0 0 Z " fill="#5EBCBC" transform="translate(22,39)"/>
<path d="M0 0 C4.95 0 9.9 0 15 0 C16 4 16 4 15 6 C8.07 5.505 8.07 5.505 1 5 C0.67 3.35 0.34 1.7 0 0 Z " fill="#07ABAA" transform="translate(57,35)"/>
<path d="M0 0 C2.64 0 5.28 0 8 0 C9.5111995 5.03733166 8.64599773 9.88171027 8 15 C7.67 15 7.34 15 7 15 C6.67 10.71 6.34 6.42 6 2 C4.35 1.67 2.7 1.34 1 1 C1 5.95 1 10.9 1 16 C-0.98 16.33 -2.96 16.66 -5 17 C-4.67 18.32 -4.34 19.64 -4 21 C-5.5 19.625 -5.5 19.625 -7 18 C-7 17.34 -7 16.68 -7 16 C-5.02 15.67 -3.04 15.34 -1 15 C-1.09539063 14.33613281 -1.19078125 13.67226563 -1.2890625 12.98828125 C-2.39015817 4.21792619 -2.39015817 4.21792619 0 0 Z " fill="#D9704A" transform="translate(46,29)"/>
<path d="M0 0 C1.134375 0.020625 2.26875 0.04125 3.4375 0.0625 C4.0975 2.3725 4.7575 4.6825 5.4375 7.0625 C4.4475 7.5575 4.4475 7.5575 3.4375 8.0625 C3.1075 6.4125 2.7775 4.7625 2.4375 3.0625 C0.7875 2.7325 -0.8625 2.4025 -2.5625 2.0625 C-2.8925 6.0225 -3.2225 9.9825 -3.5625 14.0625 C-3.8925 14.0625 -4.2225 14.0625 -4.5625 14.0625 C-4.58935938 11.91673363 -4.60883088 9.77087355 -4.625 7.625 C-4.63660156 6.43003906 -4.64820313 5.23507813 -4.66015625 4.00390625 C-4.51766709 -0.28786723 -4.40551892 0.07728981 0 0 Z " fill="#6CBDBC" transform="translate(18.5625,10.9375)"/>
<path d="M0 0 C1.32 0 2.64 0 4 0 C5.125 3.75 5.125 3.75 4 6 C-2.93 5.505 -2.93 5.505 -10 5 C-10 4.67 -10 4.34 -10 4 C-7.03 4 -4.06 4 -1 4 C-0.67 2.68 -0.34 1.36 0 0 Z " fill="#2BB3B6" transform="translate(68,35)"/>
<path d="M0 0 C0.66 0 1.32 0 2 0 C1.67 3.3 1.34 6.6 1 10 C3.97 10.495 3.97 10.495 7 11 C6.67 12.32 6.34 13.64 6 15 C5.34 15 4.68 15 4 15 C4 14.01 4 13.02 4 12 C2.68 11.67 1.36 11.34 0 11 C0 7.37 0 3.74 0 0 Z " fill="#BF866A" transform="translate(54,34)"/>
<path d="M0 0 C1.41377341 2.63904371 2.37240135 5.07120629 3 8 C2.01 7.67 1.02 7.34 0 7 C-0.33 6.01 -0.66 5.02 -1 4 C-3.31 3.67 -5.62 3.34 -8 3 C-8 2.34 -8 1.68 -8 1 C-5.36 0.67 -2.72 0.34 0 0 Z " fill="#1FA7AA" transform="translate(76,76)"/>
<path d="M0 0 C0.99 0 1.98 0 3 0 C3 1.32 3 2.64 3 4 C0.69 4.66 -1.62 5.32 -4 6 C-1.125 1.125 -1.125 1.125 0 0 Z " fill="#1CB0B3" transform="translate(40,35)"/>
<path d="M0 0 C2.475 0.495 2.475 0.495 5 1 C5.33 2.65 5.66 4.3 6 6 C7.32 6.33 8.64 6.66 10 7 C9.01 7.33 8.02 7.66 7 8 C4.35247996 5.42215154 2.05567935 3.08351902 0 0 Z " fill="#EFA788" transform="translate(42,50)"/>
</svg>
